<svg width="22" height="21" viewBox="0 0 22 21" fill="none" xmlns="http://www.w3.org/2000/svg">
<g clip-path="url(#clip0_1_10)">
<path d="M10.45 11.55C7.11401 11.55 4.39999 8.95935 4.39999 5.775C4.39999 2.59065 7.11401 0 10.45 0C13.786 0 16.5 2.59065 16.5 5.775C16.5 8.95935 13.786 11.55 10.45 11.55ZM10.45 1.05C7.72055 1.05 5.49999 3.16963 5.49999 5.775C5.49999 8.38037 7.72055 10.5 10.45 10.5C13.1794 10.5 15.4 8.38037 15.4 5.775C15.4 3.16963 13.1794 1.05 10.45 1.05Z" fill="black"/>
<path d="M19.25 21.0001H1.65C0.740201 21.0001 0 20.2936 0 19.4251C0 19.3536 0.0152969 17.6556 1.3475 15.9601C2.12296 14.9731 3.18471 14.189 4.50319 13.6297C6.11359 12.9465 8.11439 12.6001 10.45 12.6001C12.7856 12.6001 14.7864 12.9465 16.3968 13.6297C17.7153 14.1891 18.777 14.9731 19.5525 15.9601C20.8847 17.6556 20.9 19.3536 20.9 19.4251C20.9 20.2936 20.1598 21.0001 19.25 21.0001ZM10.45 13.6501C6.61461 13.6501 3.78411 14.6507 2.26445 16.5436C1.12554 17.9622 1.10011 19.4127 1.1 19.4272C1.1 19.7146 1.34675 19.9501 1.65 19.9501H19.25C19.5533 19.9501 19.8 19.7146 19.8 19.4251C19.7999 19.4128 19.7745 17.9622 18.6356 16.5436C17.1159 14.6507 14.2854 13.6501 10.45 13.6501V13.6501Z" fill="black"/>
</g>
<defs>
<clipPath id="clip0_1_10">
<rect width="22" height="21" fill="white"/>
</clipPath>
</defs>
</svg>
