<svg width="24" height="24" viewBox="0 0 24 24" fill="none" xmlns="http://www.w3.org/2000/svg">
<g clip-path="url(#clip0_1_15)">
<path d="M9.60001 24C8.27664 24 7.20001 22.9233 7.20001 21.6C7.20001 20.2766 8.27664 19.2 9.60001 19.2C10.9234 19.2 12 20.2766 12 21.6C12 22.9233 10.9234 24 9.60001 24ZM9.60001 20.4C8.93832 20.4 8.40001 20.9383 8.40001 21.6C8.40001 22.2616 8.93832 22.8 9.60001 22.8C10.2617 22.8 10.8 22.2616 10.8 21.6C10.8 20.9383 10.2617 20.4 9.60001 20.4Z" fill="black"/>
<path d="M18 24C16.6766 24 15.6 22.9233 15.6 21.6C15.6 20.2766 16.6766 19.2 18 19.2C19.3234 19.2 20.4 20.2766 20.4 21.6C20.4 22.9233 19.3234 24 18 24ZM18 20.4C17.3383 20.4 16.8 20.9383 16.8 21.6C16.8 22.2616 17.3383 22.8 18 22.8C18.6617 22.8 19.2 22.2616 19.2 21.6C19.2 20.9383 18.6617 20.4 18 20.4Z" fill="black"/>
<path d="M21.0474 5.35978C20.746 5.00397 20.2913 4.7999 19.8 4.7999H5.10831L4.98913 4.08492C4.83163 3.14004 3.95793 2.3999 3.00001 2.3999H1.80001C1.46865 2.3999 1.20001 2.66854 1.20001 2.9999C1.20001 3.33126 1.46865 3.5999 1.80001 3.5999H3.00001C3.3685 3.5999 3.74488 3.91872 3.80547 4.28221L5.81092 16.3149C5.96837 17.2598 6.8421 17.9999 7.79999 17.9999H19.8C20.1314 17.9999 20.4 17.7313 20.4 17.3999C20.4 17.0685 20.1314 16.7999 19.8 16.7999H7.79999C7.4315 16.7999 7.05512 16.4811 6.99454 16.1176L6.69852 14.3414L18.6565 13.3016C19.5867 13.2207 20.4355 12.4359 20.5891 11.5149L21.3945 6.68221C21.4753 6.1976 21.3488 5.71558 21.0474 5.35978H21.0474ZM20.2109 6.48492L19.4054 11.3176C19.3422 11.6969 18.9357 12.0728 18.5525 12.1061L6.50066 13.1541L5.3083 5.99993H19.8C19.9399 5.99993 20.0577 6.04807 20.1318 6.13544C20.2058 6.22286 20.2339 6.34694 20.2109 6.48494L20.2109 6.48492Z" fill="black"/>
</g>
<defs>
<clipPath id="clip0_1_15">
<rect width="24" height="24" fill="white"/>
</clipPath>
</defs>
</svg>
