<svg width="17" height="17" viewBox="0 0 17 17" fill="none" xmlns="http://www.w3.org/2000/svg">
<path id="Vector" d="M1.02 16.343C1.02 16.7064 1.32387 17 1.7 17H7.7775V9.28019H1.02V16.343ZM9.2225 17H15.3C15.6761 17 15.98 16.7064 15.98 16.343V9.28019H9.2225V17ZM16.32 4.35266H13.1835C13.4725 3.91329 13.6425 3.39179 13.6425 2.83333C13.6425 1.27089 12.3271 0 10.71 0C9.83025 0 9.03763 0.377778 8.5 0.973188C7.96238 0.377778 7.16975 0 6.29 0C4.67287 0 3.3575 1.27089 3.3575 2.83333C3.3575 3.39179 3.52538 3.91329 3.8165 4.35266H0.68C0.303875 4.35266 0 4.64626 0 5.00966V7.88406H7.7775V4.35266H9.2225V7.88406H17V5.00966C17 4.64626 16.6961 4.35266 16.32 4.35266ZM7.7775 4.27053H6.29C5.46975 4.27053 4.8025 3.62585 4.8025 2.83333C4.8025 2.04082 5.46975 1.39614 6.29 1.39614C7.11025 1.39614 7.7775 2.04082 7.7775 2.83333V4.27053ZM10.71 4.27053H9.2225V2.83333C9.2225 2.04082 9.88975 1.39614 10.71 1.39614C11.5303 1.39614 12.1975 2.04082 12.1975 2.83333C12.1975 3.62585 11.5303 4.27053 10.71 4.27053Z" fill="black"/>
</svg>
