<svg width="20" height="20" viewBox="0 0 20 20" fill="none" xmlns="http://www.w3.org/2000/svg">
<g clip-path="url(#clip0_1_13)">
<path d="M18.0586 2.44913C15.9297 0.636633 12.7461 0.937414 10.7695 2.97648L9.99999 3.77335L9.23046 2.98038C7.63671 1.33195 4.42187 0.339758 1.9414 2.44913C-0.511728 4.54288 -0.640634 8.3007 1.55468 10.5663L9.11327 18.371C9.35546 18.621 9.67577 18.7499 9.99608 18.7499C10.3164 18.7499 10.6367 18.6249 10.8789 18.371L18.4375 10.5663C20.6406 8.3007 20.5117 4.54288 18.0586 2.44913ZM17.5469 9.69913L10.0156 17.5038L2.45312 9.69913C0.953116 8.15226 0.640616 5.20304 2.7539 3.40226C4.89452 1.57413 7.41015 2.89835 8.33202 3.85148L9.99999 5.57413L11.668 3.85148C12.5742 2.91398 15.1133 1.58585 17.2461 3.40226C19.3555 5.19913 19.0469 8.14835 17.5469 9.69913Z" fill="black"/>
</g>
<defs>
<clipPath id="clip0_1_13">
<rect width="20" height="20" fill="white"/>
</clipPath>
</defs>
</svg>
