<svg width="17" height="16" viewBox="0 0 17 16" fill="none" xmlns="http://www.w3.org/2000/svg">
<path id="Vector" d="M8.01097 7.51688e-06C6.51424 -0.0020439 5.04694 0.415829 3.77587 1.20613C2.50479 1.99643 1.48091 3.12747 0.820599 4.47067C0.160291 5.81388 -0.10996 7.31539 0.040562 8.80454C0.191084 10.2937 0.756343 11.7107 1.67209 12.8946C2.58784 14.0785 3.81734 14.9818 5.22086 15.5018C6.62438 16.0217 8.14561 16.1375 9.61166 15.836C11.0777 15.5344 12.4298 14.8277 13.5142 13.796C14.5986 12.7644 15.3718 11.4492 15.746 10H13.665C13.2983 11.0372 12.6535 11.9536 11.801 12.6491C10.9486 13.3445 9.92142 13.7922 8.83172 13.9432C7.74202 14.0942 6.63178 13.9427 5.62237 13.5053C4.61296 13.0679 3.74325 12.3613 3.10831 11.4629C2.47337 10.5646 2.09766 9.50889 2.02223 8.41136C1.94681 7.31384 2.17458 6.2167 2.68066 5.2399C3.18673 4.2631 3.95161 3.44424 4.89169 2.87283C5.83177 2.30143 6.91086 1.99948 8.01097 2.00001C8.79785 2.00116 9.5766 2.15917 10.3017 2.4648C11.0268 2.77043 11.6837 3.21754 12.234 3.78001L9.01597 7.00001H16.016V7.51688e-06L13.665 2.35001C12.9242 1.60469 12.0432 1.01333 11.0728 0.610007C10.1024 0.206684 9.06183 -0.000630955 8.01097 7.51688e-06Z" fill="black"/>
</svg>
