<svg width="18" height="14" viewBox="0 0 18 14" fill="none" xmlns="http://www.w3.org/2000/svg">
<path id="Vector" d="M17.55 9.625H17.1V6.66914C17.1 6.32187 16.9566 5.98828 16.7034 5.74219L13.8937 3.01055C13.6406 2.76445 13.2975 2.625 12.9403 2.625H11.7V1.3125C11.7 0.587891 11.0953 0 10.35 0H3.15C2.40469 0 1.8 0.587891 1.8 1.3125V2.625H0.225C0.10125 2.625 0 2.72344 0 2.84375V3.28125C0 3.40156 0.10125 3.5 0.225 3.5H7.875C7.99875 3.5 8.1 3.59844 8.1 3.71875V4.15625C8.1 4.27656 7.99875 4.375 7.875 4.375H1.125C1.00125 4.375 0.9 4.47344 0.9 4.59375V5.03125C0.9 5.15156 1.00125 5.25 1.125 5.25H6.975C7.09875 5.25 7.2 5.34844 7.2 5.46875V5.90625C7.2 6.02656 7.09875 6.125 6.975 6.125H0.225C0.10125 6.125 0 6.22344 0 6.34375V6.78125C0 6.90156 0.10125 7 0.225 7H6.075C6.19875 7 6.3 7.09844 6.3 7.21875V7.65625C6.3 7.77656 6.19875 7.875 6.075 7.875H1.8V11.375C1.8 12.8242 3.00937 14 4.5 14C5.99062 14 7.2 12.8242 7.2 11.375H10.8C10.8 12.8242 12.0094 14 13.5 14C14.9906 14 16.2 12.8242 16.2 11.375H17.55C17.7975 11.375 18 11.1781 18 10.9375V10.0625C18 9.82187 17.7975 9.625 17.55 9.625ZM4.5 12.6875C3.75469 12.6875 3.15 12.0996 3.15 11.375C3.15 10.6504 3.75469 10.0625 4.5 10.0625C5.24531 10.0625 5.85 10.6504 5.85 11.375C5.85 12.0996 5.24531 12.6875 4.5 12.6875ZM13.5 12.6875C12.7547 12.6875 12.15 12.0996 12.15 11.375C12.15 10.6504 12.7547 10.0625 13.5 10.0625C14.2453 10.0625 14.85 10.6504 14.85 11.375C14.85 12.0996 14.2453 12.6875 13.5 12.6875ZM15.75 7H11.7V3.9375H12.9403L15.75 6.66914V7Z" fill="black"/>
</svg>
