<svg width="66" height="66" viewBox="0 0 66 66" fill="none" xmlns="http://www.w3.org/2000/svg">
<path d="M36.3738 26.4098C36.3738 26.0807 36.2431 25.765 36.0103 25.5323C35.7776 25.2996 35.462 25.1688 35.1328 25.1688C34.8037 25.1688 34.488 25.2996 34.2553 25.5323C34.0226 25.765 33.8918 26.0807 33.8918 26.4098V33.8557H28.9279C28.5988 33.8557 28.2831 33.9865 28.0504 34.2192C27.8177 34.4519 27.6869 34.7676 27.6869 35.0967C27.6869 35.4258 27.8177 35.7415 28.0504 35.9742C28.2831 36.2069 28.5988 36.3377 28.9279 36.3377H35.1328C35.462 36.3377 35.7776 36.2069 36.0103 35.9742C36.2431 35.7415 36.3738 35.4258 36.3738 35.0967V26.4098Z" fill="#919191"/>
<path d="M23.9639 18.1374V19.088C22.5624 19.3741 21.3028 20.1357 20.3982 21.2437C19.4936 22.3518 18.9997 23.7384 19 25.1689V42.5426C18.9997 43.9731 19.4936 45.3597 20.3982 46.4678C21.3028 47.5759 22.5624 48.3374 23.9639 48.6235V49.5741C23.9639 51.8575 25.8155 53.7115 28.1014 53.7115H39.6822C41.9657 53.7115 43.8197 51.86 43.8197 49.5741V48.6235C45.2212 48.3374 46.4809 47.5759 47.3854 46.4678C48.29 45.3597 48.7839 43.9731 48.7836 42.5426V33.8558H50.0246C50.3537 33.8558 50.6694 33.725 50.9021 33.4923C51.1349 33.2595 51.2656 32.9439 51.2656 32.6148V27.6508C51.2656 27.3217 51.1349 27.0061 50.9021 26.7733C50.6694 26.5406 50.3537 26.4098 50.0246 26.4098H48.7836V25.1689C48.7839 23.7384 48.29 22.3518 47.3854 21.2437C46.4809 20.1357 45.2212 19.3741 43.8197 19.088V18.1374C43.8197 15.854 41.9681 14 39.6822 14H28.1014C25.818 14 23.9639 15.8515 23.9639 18.1374ZM25.2049 21.4459H42.5787C43.5661 21.4459 44.513 21.8381 45.2112 22.5363C45.9094 23.2345 46.3017 24.1815 46.3017 25.1689V42.5426C46.3017 43.53 45.9094 44.477 45.2112 45.1752C44.513 45.8734 43.5661 46.2656 42.5787 46.2656H25.2049C24.2175 46.2656 23.2706 45.8734 22.5724 45.1752C21.8742 44.477 21.482 43.53 21.482 42.5426V25.1689C21.482 24.1815 21.8742 23.2345 22.5724 22.5363C23.2706 21.8381 24.2175 21.4459 25.2049 21.4459Z" fill="#919191"/>
</svg>
